<svg width="30" height="16" viewBox="0 0 30 16" fill="none" xmlns="http://www.w3.org/2000/svg">
<path d="M11.6536 3.32552C14.3697 3.32552 15.7895 6.96732 15.7895 9.00443C15.7895 10.682 15.2463 12.7081 12.0858 12.7081M11.6536 3.32552C14.3285 3.16089 18.995 3.49829 20.8715 6.16494C21.463 7.00557 21.7552 7.44362 22.0289 8.21904M11.6536 3.32552C10.5413 3.38737 8.54549 3.69244 8.54549 6.45008M12.0858 12.7081C14.699 12.7081 18.2016 12.7081 19.8806 12.7081C21.0179 12.7081 22.021 11.8897 22.2564 10.3988M12.0858 12.7081C11.0076 12.7502 8.85119 11.7004 8.85119 9.85437M22.0289 8.21904C22.7093 8.16405 24.2542 8.67102 24.4517 9.5599C24.6493 10.4488 22.9779 10.4986 22.2564 10.3988M22.0289 8.21904C22.2523 8.85222 22.3684 9.68935 22.2564 10.3988M8.54549 6.45008L11.2215 6.94402C12.4066 7.98108 12.0033 9.10443 11.6535 9.53648C10.9408 9.55045 9.69871 9.51568 8.85119 9.85437M8.54549 6.45008H8.01164C7.76473 6.03862 6.93758 5.30209 5.60426 5.6477C4.27094 5.99331 5.21338 7.68469 5.85126 8.48718C4.92544 9.04266 5.06105 10.1538 5.60419 10.6476C6.28313 11.2649 7.51777 11.3783 8.01164 10.3289C8.13842 10.0595 8.45076 10.0144 8.85119 9.85437" stroke="black"/>
</svg>
