<svg width="30" height="16" viewBox="0 0 30 16" fill="none" xmlns="http://www.w3.org/2000/svg">
<path d="M12.108 3.87169C12.108 4.77683 12.2235 5.38365 13.7521 5.79678C15.236 6.19782 16.0779 5.59579 16.9604 6.41032C17.4686 6.87934 17.7954 7.69848 18.4844 8.203M12.108 3.87169C12.8505 3.5321 13.5198 3.13828 14.7146 3.40995C16.2082 3.74953 18.1027 4.00759 19.189 3.87181C20.0579 3.76318 22.5123 5.16727 23.0242 5.64244C23.5361 6.11761 24.8572 6.11761 24.8572 6.11761V11.1626C24.6535 11.2304 23.4462 11.2052 22.5468 11.6549C21.6474 12.1046 20.1483 12.1046 20.1483 12.1046M12.108 3.87169C12.108 3.87169 9.18043 4.10217 7.88489 5.51605C7.4877 5.94952 5.41064 6.11761 5.41064 6.11761L5.41064 11.1626H7.88489C8.57877 11.1626 10.8663 12.7376 11.6266 13.335C12.5771 14.0818 13.6284 12.9277 14.7146 13.335C15.5836 13.6609 16.1049 12.973 16.6706 12.5882C16.6706 12.5882 18.3367 13.6361 19.189 13.335C20.0412 13.034 20.203 12.5882 20.1483 12.1046M20.4907 8.71842C19.7995 8.71842 18.9919 8.57467 18.4844 8.203M18.4844 8.203C19.0631 8.97715 20.0367 11.1162 20.1483 12.1046" stroke="black"/>
</svg>
