<svg width="16" height="16" viewBox="0 0 16 16" fill="none" xmlns="http://www.w3.org/2000/svg">
<path d="M9.92753 3.33325C10.5791 4.09654 11.8078 4.31998 11.8078 4.31998M6.32216 3.54677C6.32216 3.54677 5.60271 4.32251 4.2251 4.47971M11.565 10.0064L11.0434 11.0444L11.1858 11.3559M4.46875 10.0064L5.0297 11.0444L4.77197 11.4317M9.3313 6.46142C9.83229 6.33621 11.0897 6.28863 12.1116 7.1001M6.87695 6.46142C6.37596 6.33621 5.11851 6.28863 4.09668 7.1001M8.08491 9.65042C10.4983 9.65042 11.3315 9.85622 12.102 9.79798C11.9008 10.5823 11.4894 12.6668 8.08491 12.6668C4.74266 12.6668 4.36094 10.7673 3.88818 10.0232C4.88403 10.0232 6.40534 9.65042 8.08491 9.65042Z" stroke="black"/>
</svg>
